# generated from PmQm by Jehee Lee
:FULLY-SPECIFIED
:DEGREES
69
root 4.25594 28.3481 -20.5213 -171.365 5.87733 -175.687
RightUpLeg -71.789 7.15177 -0.129211
RightLeg 72.534 2.49771 7.99644
RightFoot -12.3382 -0.0548998 3.30959
RightToes -0.000541893 -0.000659172 -0.000493268
Spine 14.1125 0.222708 3.18117
Spine1 28.6121 -0.59767 5.24463
HEad -33.2553 -27.0085 16.9982
LeftShoulder1 -3.88251e-019 -0 -3.92111e-022
LeftArm -29.1771 -0.914547 -87.1513
LeftForeArm 35.65 -41.2852 -7.5094
LeftHand -1.04528 -4.10264 13.0218
RightShoulder 7.45443e-017 -2.42657e-020 1.96277e-018
RightArm -19.077 -1.27108 65.6992
RightForeArm 2.55323 13.5396 7.56715
RightHand -1.79326 13.1786 -11.567
LeftUpLeg -70.81 -3.33276 7.49349
LeftLeg 77.9747 -0.0702309 1.15617
LeftFoot -17.2954 0.0332013 -1.35545
LeftToes 3.91355e-005 3.11907e-005 -4.10385e-006
70
root 4.25288 27.9348 -20.0718 -173.838 6.19147 -175.996
RightUpLeg -71.048 7.34309 -0.219007
RightLeg 73.8151 2.35279 8.17727
RightFoot -12.4572 -0.046534 3.89692
RightToes -0.000541893 -0.000659172 -0.000493268
Spine 14.0992 0.226552 2.93705
Spine1 28.5868 -0.503415 4.75887
HEad -32.7738 -26.4387 16.6123
LeftShoulder1 -3.88251e-019 -0 -3.92111e-022
LeftArm -30.7506 0.253851 -86.2925
LeftForeArm 34.1446 -39.7904 -7.15755
LeftHand -1.04907 -3.92654 13.3024
RightShoulder 7.45443e-017 -2.42657e-020 1.96277e-018
RightArm -19.8068 -1.38515 66.2603
RightForeArm 3.59061 12.9789 7.45176
RightHand -1.75394 12.9762 -11.443
LeftUpLeg -69.9438 -3.14546 7.06998
LeftLeg 79.1895 -0.1139 1.03159
LeftFoot -17.0462 0.0420257 -1.20807
LeftToes 3.91355e-005 3.11907e-005 -4.10385e-006
71
root 4.25071 27.5736 -19.617 -176.389 6.65689 -176.385
RightUpLeg -70.043 7.53799 -0.289384
RightLeg 74.8014 2.28829 8.53087
RightFoot -12.5322 -0.0352636 4.80236
RightToes -0.000541893 -0.000659172 -0.000493268
Spine 14.069 0.262009 2.68883
Spine1 28.525 -0.345545 4.26288
HEad -31.8346 -25.8951 16.013
LeftShoulder1 -3.88251e-019 -0 -3.92111e-022
LeftArm -32.1821 1.0888 -85.3726
LeftForeArm 32.2687 -37.4807 -6.61786
LeftHand -1.08679 -3.98127 13.6893
RightShoulder 7.45443e-017 -2.42657e-020 1.96277e-018
RightArm -20.2857 -1.39451 66.8465
RightForeArm 3.54759 12.5995 7.3861
RightHand -1.82087 12.9359 -11.8843
LeftUpLeg -68.7736 -2.88028 6.62039
LeftLeg 80.1166 -0.13721 0.981801
LeftFoot -16.7889 0.0298228 -1.4898
LeftToes 3.91355e-005 3.11907e-005 -4.10385e-006
72
root 4.22988 27.2271 -19.1797 -179.187 6.94362 -176.779
RightUpLeg -68.6785 7.3824 -0.219462
RightLeg 75.6848 2.25522 9.00151
RightFoot -12.0619 -0.0503741 4.95784
RightToes -0.000541893 -0.000659172 -0.000493268
Spine 13.9821 0.316376 2.48953
Spine1 28.3455 -0.157685 3.86445
HEad -30.2095 -25.6232 15.1097
LeftShoulder1 -3.88251e-019 -0 -3.92111e-022
LeftArm -33.7558 1.83405 -84.5875
LeftForeArm 31.2113 -34.8185 -5.97233
LeftHand -1.16181 -3.96856 14.6274
RightShoulder 7.45443e-017 -2.42657e-020 1.96277e-018
RightArm -20.1942 -1.73532 67.083
RightForeArm 3.12936 12.4859 7.61716
RightHand -1.91297 13.0586 -12.3813
LeftUpLeg -67.2889 -2.80167 6.16352
LeftLeg 80.9422 -0.163986 0.877498
LeftFoot -16.4913 0.0116104 -1.94097
LeftToes 3.91355e-005 3.11907e-005 -4.10385e-006
73
root 4.19255 26.8763 -18.8096 177.965 7.0753 -176.983
RightUpLeg -67.1015 6.9127 0.12994
RightLeg 76.5567 2.22006 9.52134
RightFoot -11.1906 -0.0812349 4.32626
RightToes -0.000541893 -0.000659172 -0.000493268
Spine 13.8338 0.321107 2.41698
Spine1 28.0378 -0.0966051 3.688
HEad -28.1781 -25.347 13.94
LeftShoulder1 -3.88251e-019 -0 -3.92111e-022
LeftArm -35.7548 2.6584 -84.1135
LeftForeArm 31.1391 -32.2724 -5.34186
LeftHand -1.2129 -3.88299 15.3868
RightShoulder 7.45443e-017 -2.42657e-020 1.96277e-018
RightArm -20.1789 -2.19004 67.2279
RightForeArm 3.59926 12.3275 7.76555
RightHand -1.87729 13.0119 -12.1885
LeftUpLeg -65.7212 -2.90519 5.89244
LeftLeg 81.8993 -0.190327 0.766102
LeftFoot -16.1683 0.007442910005 -2.12213
LeftToes 3.91355e-005 3.11907e-005 -4.10385e-006
74
root 4.15388 26.5526 -18.52 175.186 7.34937 -177.003
RightUpLeg -65.3476 6.48846 0.681941
RightLeg 77.4044 2.18024 10.075
RightFoot -10.7537 -0.0942318 4.12563
RightToes -0.000541893 -0.000659172 -0.000493268
Spine 13.6857 0.306287 2.45169
Spine1 27.727 -0.0958875 3.70368
HEad -26.0802 -25.0188 12.8193
LeftShoulder1 -3.88251e-019 -0 -3.92111e-022
LeftArm -37.7311 3.21538 -83.8564
LeftForeArm 30.8821 -29.2886 -4.65819
LeftHand -1.25381 -3.94811 15.7841
RightShoulder 7.45443e-017 -2.42657e-020 1.96277e-018
RightArm -20.9725 -2.48492 67.6434
RightForeArm 4.71878 11.7734 7.53605
RightHand -1.77989 12.8049 -11.7079
LeftUpLeg -64.0173 -2.95864 5.84592
LeftLeg 82.9193 -0.208202 0.715824
LeftFoot -16.0017 0.008498300008 -2.14848
LeftToes 3.91355e-005 3.11907e-005 -4.10385e-006
75
root 4.11705 26.2776 -18.2547 172.405 7.67041 -177.002
RightUpLeg -63.4421 6.12534 1.21323
RightLeg 78.1734 2.13367 10.5967
RightFoot -10.7564 -0.0963398 4.56309
RightToes -0.000541893 -0.000659172 -0.000493268
Spine 13.571 0.299523 2.50487
Spine1 27.4817 -0.0775508 3.76747
HEad -23.7435 -24.8928 11.668
LeftShoulder1 -3.88251e-019 -0 -3.92111e-022
LeftArm -39.1698 3.18395 -83.5575
LeftForeArm 30.4721 -25.127 -3.77356
LeftHand -1.28623 -4.02165 16.0593
RightShoulder 7.45443e-017 -2.42657e-020 1.96277e-018
RightArm -22.1485 -2.66391 68.1098
RightForeArm 5.58195 10.8338 7.14658
RightHand -1.77395 12.7315 -11.7158
LeftUpLeg -62.0881 -2.96239 5.84067
LeftLeg 83.7442 -0.224117 0.637406
LeftFoot -15.985 -0.004388110001 -2.47127
LeftToes 3.91355e-005 3.11907e-005 -4.10385e-006
76
root 4.07713 26.0385 -17.9724 169.679 7.93532 -177.007
RightUpLeg -61.5179 5.74656 1.68115
RightLeg 78.734 2.10798 11.0771
RightFoot -10.5097 -0.106404 4.82719
RightToes -0.000541893 -0.000659172 -0.000493268
Spine 13.4056 0.287669 2.57008
Spine1 27.133 -0.0708143 3.85172
HEad -20.835 -24.8366 10.0313
LeftShoulder1 -3.88251e-019 -0 -3.92111e-022
LeftArm -38.6989 2.70678 -83.3435
LeftForeArm 28.9166 -20.0628 -1.94
LeftHand -1.30183 -3.98636 16.3073
RightShoulder 7.45443e-017 -2.42657e-020 1.96277e-018
RightArm -23.1125 -2.74131 68.3136
RightForeArm 6.59912 9.682 6.81782
RightHand -1.74785 12.5635 -11.6525
LeftUpLeg -60.1083 -2.9139 5.80719
LeftLeg 84.335 -0.241147 0.472424
LeftFoot -15.9288 -0.0226814 -2.94962
LeftToes 3.91355e-005 3.11907e-005 -4.10385e-006
77
root 4.03222 25.8019 -17.6864 167.123 8.23766 -176.939
RightUpLeg -59.6605 5.37949 2.17602
RightLeg 79.0973 2.11906 11.5892
RightFoot -10.1445 -0.120753 4.95017
RightToes -0.000541893 -0.000659172 -0.000493268
Spine 13.1723 0.266213 2.68992
Spine1 26.6474 -0.096814 4.02414
HEad -17.5929 -24.5738 8.04852
LeftShoulder1 -3.88251e-019 -0 -3.92111e-022
LeftArm -35.7262 2.20658 -83.4765
LeftForeArm 24.677 -14.8785 0.6479
LeftHand -1.3594 -4.01442 16.9564
RightShoulder 7.45443e-017 -2.42657e-020 1.96277e-018
RightArm -23.7191 -2.79465 68.3946
RightForeArm 8.09951 8.67439 6.50102
RightHand -1.59595 11.9882 -11.0158
LeftUpLeg -58.2989 -2.73558 5.83519
LeftLeg 84.8892 -0.258081 0.242744
LeftFoot -15.7862 -0.0209798 -2.97725
LeftToes 3.91355e-005 3.11907e-005 -4.10385e-006
78
root 3.97894 25.5562 -17.4126 164.687 8.37164 -176.821
RightUpLeg -57.8613 4.82242 2.54951
RightLeg 79.4482 2.12977 12.1234
RightFoot -10.2305 -0.123438 5.56867
RightToes -0.000541893 -0.000659172 -0.000493268
Spine 13.0036 0.198877 2.85127
Spine1 26.2909 -0.224509 4.28516
HEad -14.8865 -24.1758 6.34202
LeftShoulder1 -3.88251e-019 -0 -3.92111e-022
LeftArm -34.2605 1.81078 -83.795
LeftForeArm 21.2838 -10.2877 2.09293
LeftHand -1.46347 -4.13516 17.993
RightShoulder 7.45443e-017 -2.42657e-020 1.96277e-018
RightArm -23.9321 -2.9305 68.4689
RightForeArm 9.31721 8.20108 6.32166
RightHand -1.51313 11.5287 -10.7409
LeftUpLeg -56.6584 -2.64463 5.83643
LeftLeg 85.4458 -0.271124 0.00299381
LeftFoot -15.6065 -0.00242619 -2.57575
LeftToes 3.91355e-005 3.11907e-005 -4.10385e-006
79
root 3.92163 25.323 -17.1624 162.383 8.11932 -176.783
RightUpLeg -56.2296 3.96888 2.53405
RightLeg 79.892 2.11331 12.6614
RightFoot -10.5392 -0.118395 6.69814
RightToes -0.000541893 -0.000659172 -0.000493268
Spine 13.0013 0.0544222 2.98114
Spine1 26.2674 -0.50458 4.50688
HEad -13.1868 -23.7154 5.04554
LeftShoulder1 -3.88251e-019 -0 -3.92111e-022
LeftArm -34.328 1.17346 -84.2007
LeftForeArm 19.5037 -6.70669 2.59935
LeftHand -1.52244 -4.2333 18.5141
RightShoulder 7.45443e-017 -2.42657e-020 1.96277e-018
RightArm -23.7616 -2.82695 68.3964
RightForeArm 9.96524 7.96476 6.55699
RightHand -1.60134 11.7335 -11.2075
LeftUpLeg -55.1476 -2.85956 5.61712
LeftLeg 85.8885 -0.278419 -0.191714
LeftFoot -15.3934 0.006400410003 -2.42666
LeftToes 3.91355e-005 3.11907e-005 -4.10385e-006
80
root 3.86739 25.1399 -16.941 160.365 7.79291 -176.688
RightUpLeg -54.7454 3.16751 2.44764
RightLeg 80.2036 2.11385 13.1564
RightFoot -10.528 -0.126534 7.72605
RightToes -0.000541893 -0.000659172 -0.000493268
Spine 13.0842 -0.097315 3.10561
Spine1 26.4156 -0.804452 4.71209
HEad -11.9983 -23.2141 4.04333
LeftShoulder1 -3.88251e-019 -0 -3.92111e-022
LeftArm -34.5863 0.314925 -84.6372
LeftForeArm 18.5735 -3.91749 2.80355
LeftHand -1.52983 -4.37476 18.3426
RightShoulder 7.45443e-017 -2.42657e-020 1.96277e-018
RightArm -23.4522 -2.18969 68.3887
RightForeArm 10.7757 7.27571 7.04038
RightHand -1.6382 12.0987 -11.2288
LeftUpLeg -53.7733 -3.25347 5.49126
LeftLeg 86.1821 -0.289377 -0.567006
LeftFoot -15.1202 0.00272664 -2.66444
LeftToes 3.91355e-005 3.11907e-005 -4.10385e-006
